<svg width="266" height="105" viewBox="0 0 266 105" fill="none" xmlns="http://www.w3.org/2000/svg">
<path d="M98.9438 44.5707L89.8271 35.454C89.2676 34.8946 89.2676 33.9875 89.8271 33.4281C90.3865 32.8686 91.2935 32.8686 91.853 33.4281L95.7717 37.3467C98.5972 40.1723 103.214 40.0508 105.887 37.0807L118.22 23.3782C118.754 22.7842 119.678 22.7599 120.243 23.325C120.787 23.8697 120.787 24.7529 120.243 25.2977L119.203 26.3373L102.886 44.467C101.845 45.6246 100.045 45.672 98.9438 44.5707Z" stroke="#546EFF" stroke-width="8"/>
<path d="M28.0359 12.1562H55.1906C58.5817 12.1562 61.8576 13.3871 64.4097 15.6202L65.3965 16.4837C71.4913 21.8166 71.8035 31.1927 66.0769 36.9192L61.6283 41.3679C55.6412 47.355 56.2976 57.2451 63.0235 62.3884L70.0776 67.7827C77.4483 73.4192 77.3964 84.5364 69.9733 90.1038L64.1842 94.4455C61.7609 96.263 58.8134 97.2455 55.7842 97.2455H32.0878" stroke="#546EFF" stroke-width="10" stroke-linecap="round"/>
<path d="M6.76263 100.227L39.2363 65.8429C39.7684 65.2795 39.7558 64.395 39.2078 63.8471C38.6373 63.2765 37.7082 63.2898 37.1542 63.8764L4.68051 98.2603C4.14842 98.8237 4.16106 99.7082 4.70901 100.256C5.27956 100.827 6.20861 100.813 6.76263 100.227Z" stroke="#546EFF" stroke-width="8"/>
<ellipse cx="92.8661" cy="12.1556" rx="12.1557" ry="12.1556" fill="#546EFF"/>
<path d="M84.7625 97.2451H234.682" stroke="#546EFF" stroke-width="8" stroke-linecap="round"/>
<path d="M94.71 85.5892C90.1041 85.5892 87.9199 82.3366 87.9199 78.4192V50.333C87.9199 49.3596 89.9142 49.3596 91.9085 49.3596C93.9028 49.3596 95.897 49.3596 95.897 50.333V76.6624C95.897 77.4696 96.2769 78.0631 97.2503 78.0631C97.6539 78.0631 98.105 78.0156 98.6036 77.8732C98.6748 77.8494 98.746 77.8494 98.8172 77.8494C99.6719 77.8494 99.6719 79.5588 99.6719 81.292C99.6719 83.1438 99.6719 85.0194 98.8172 85.1856C97.4402 85.4705 96.0395 85.5892 94.71 85.5892Z" fill="white"/>
<path d="M114.294 85.5892C109.332 85.5892 106.008 81.8143 106.008 75.5465V61.6577C106.008 60.6843 108.026 60.6843 109.997 60.6843C111.991 60.6843 113.985 60.6843 113.985 61.6577V75.0005C113.985 76.6624 114.911 78.0869 116.834 78.0869C119.09 78.0869 120.348 76.3537 120.348 74.3357V61.6577C120.348 60.6843 122.342 60.6843 124.336 60.6843C126.331 60.6843 128.301 60.6843 128.301 61.6577V84.3546C128.301 85.328 126.426 85.328 124.55 85.328C122.674 85.328 120.799 85.328 120.799 84.3546V81.7905C119.256 83.9273 117.261 85.5892 114.294 85.5892Z" fill="white"/>
<path d="M147.576 85.5892C140.335 85.5892 135.824 80.0574 135.824 72.8875C135.824 65.8125 140.596 60.4232 147.671 60.4232C155.102 60.4232 158.45 66.0024 158.45 73.0062C158.45 74.0745 158.426 75.1429 157.714 75.1429H143.73C144.063 77.3746 146.104 78.8228 148.502 78.8228C150.71 78.8228 152.633 78.3005 154.509 77.1609C154.628 77.0897 154.746 77.066 154.865 77.066C155.553 77.066 156.076 78.2056 156.551 79.4876C156.954 80.5085 157.31 81.5531 157.31 82.2891C157.31 82.6927 157.215 83.0014 156.93 83.1438C153.987 84.9007 150.924 85.5892 147.576 85.5892ZM150.853 70.6558C150.805 68.7564 150.093 66.9996 147.671 66.9996C145.25 66.9996 143.825 68.8989 143.635 70.6558H150.853Z" fill="white"/>
<path d="M166.899 85.1143C166.543 85.1143 166.258 84.782 166.258 84.4258V53.0158C166.258 52.0424 168.276 52.0424 170.342 52.0424C172.383 52.0424 174.401 52.0424 174.401 53.0158V77.2084L188.551 77.2322C189.596 77.2322 189.596 79.179 189.596 81.1733C189.596 83.1438 189.596 85.1143 188.527 85.1143H166.899Z" fill="white"/>
<path d="M200.015 58.4289C196.763 58.4289 195.243 56.767 195.243 54.013C195.243 51.2352 196.763 49.5733 200.015 49.5733C203.268 49.5733 204.787 51.2352 204.787 54.013C204.787 56.767 203.268 58.4289 200.015 58.4289ZM200.015 85.328C198.021 85.328 196.027 85.328 196.027 84.3546V61.6577C196.027 60.6843 198.021 60.6843 200.039 60.6843C202.01 60.6843 203.98 60.6843 203.98 61.6577V84.3546C203.98 85.328 202.01 85.328 200.015 85.328Z" fill="white"/>
<path d="M217.486 85.328C215.492 85.328 213.521 85.328 213.521 84.3546V61.6577C213.521 60.7081 215.397 60.7081 217.273 60.7081C219.148 60.7081 221.024 60.7081 221.024 61.6577V64.2218C222.567 62.0851 224.561 60.4232 227.529 60.4232C232.491 60.4232 235.815 64.1981 235.815 70.4896V84.3546C235.815 85.328 233.844 85.328 231.826 85.328C229.856 85.328 227.838 85.328 227.838 84.3546V71.0119C227.838 69.3737 226.935 67.9255 224.989 67.9255C222.733 67.9255 221.475 69.6586 221.475 71.6766V84.3546C221.475 85.328 219.481 85.328 217.486 85.328Z" fill="white"/>
<path d="M254.401 85.5892C247.16 85.5892 242.649 80.0574 242.649 72.8875C242.649 65.8125 247.421 60.4232 254.496 60.4232C261.927 60.4232 265.275 66.0024 265.275 73.0062C265.275 74.0745 265.251 75.1429 264.539 75.1429H250.555C250.888 77.3746 252.929 78.8228 255.327 78.8228C257.535 78.8228 259.458 78.3005 261.334 77.1609C261.453 77.0897 261.571 77.066 261.69 77.066C262.378 77.066 262.901 78.2056 263.376 79.4876C263.779 80.5085 264.135 81.5531 264.135 82.2891C264.135 82.6927 264.04 83.0014 263.755 83.1438C260.811 84.9007 257.749 85.5892 254.401 85.5892ZM257.678 70.6558C257.63 68.7564 256.918 66.9996 254.496 66.9996C252.075 66.9996 250.65 68.8989 250.46 70.6558H257.678Z" fill="white"/>
<path d="M250.889 97.2451H258.993" stroke="#546EFF" stroke-width="8" stroke-linecap="round"/>
</svg>
